<svg xmlns="http://www.w3.org/2000/svg" version="1.1" xmlns:xlink="http://www.w3.org/1999/xlink" xmlns:svgjs="http://svgjs.dev/svgjs" width="1440" height="560" preserveAspectRatio="none" viewBox="0 0 1440 560"><g mask="url(&quot;#SvgjsMask1722&quot;)" fill="none"><rect width="1440" height="560" x="0" y="0" fill="rgba(5, 5, 23, 1)"></rect><g mask="url(&quot;#SvgjsMask1724&quot;)"><path d="M94.5 310.5L121.5 283.5L148.5 283.5L175.5 283.5L202.5 283.5M67.5 283.5L94.5 283.5L121.5 256.5M40.5 283.5L67.5 256.5L94.5 256.5M-13.5 283.5L13.5 283.5L40.5 283.5L67.5 283.5L94.5 310.5L121.5 310.5L148.5 310.5L175.5 310.5" stroke="url(&quot;#SvgjsLinearGradient1723&quot;)" stroke-width="4.5"></path><path d="M168.75 310.5 a6.75 6.75 0 1 0 13.5 0 a6.75 6.75 0 1 0 -13.5 0zM195.75 283.5 a6.75 6.75 0 1 0 13.5 0 a6.75 6.75 0 1 0 -13.5 0zM114.75 256.5 a6.75 6.75 0 1 0 13.5 0 a6.75 6.75 0 1 0 -13.5 0zM87.75 256.5 a6.75 6.75 0 1 0 13.5 0 a6.75 6.75 0 1 0 -13.5 0z" fill="url(&quot;#SvgjsLinearGradient1723&quot;)"></path><path d="M-13.5 256.5L13.5 256.5" stroke="url(&quot;#SvgjsLinearGradient1723&quot;)" stroke-width="4.5"></path><path d="M6.75 256.5 a6.75 6.75 0 1 0 13.5 0 a6.75 6.75 0 1 0 -13.5 0z" fill="url(&quot;#SvgjsLinearGradient1723&quot;)"></path><path d="M391.5 310.5L418.5 337.5M40.5 310.5L67.5 337.5M472.5 337.5L499.5 337.5L526.5 337.5M13.5 310.5L40.5 337.5M202.5 337.5L229.5 337.5L256.5 337.5L283.5 337.5L310.5 337.5M-13.5 310.5L13.5 310.5L40.5 310.5L67.5 310.5L94.5 337.5L121.5 337.5L148.5 337.5L175.5 337.5L202.5 337.5L229.5 310.5L256.5 310.5L283.5 310.5L310.5 310.5L337.5 310.5L364.5 310.5L391.5 310.5L418.5 310.5L445.5 310.5L472.5 337.5L499.5 364.5" stroke="url(&quot;#SvgjsLinearGradient1723&quot;)" stroke-width="4.5"></path><path d="M492.75 364.5 a6.75 6.75 0 1 0 13.5 0 a6.75 6.75 0 1 0 -13.5 0zM411.75 337.5 a6.75 6.75 0 1 0 13.5 0 a6.75 6.75 0 1 0 -13.5 0zM60.75 337.5 a6.75 6.75 0 1 0 13.5 0 a6.75 6.75 0 1 0 -13.5 0zM519.75 337.5 a6.75 6.75 0 1 0 13.5 0 a6.75 6.75 0 1 0 -13.5 0zM33.75 337.5 a6.75 6.75 0 1 0 13.5 0 a6.75 6.75 0 1 0 -13.5 0zM303.75 337.5 a6.75 6.75 0 1 0 13.5 0 a6.75 6.75 0 1 0 -13.5 0z" fill="url(&quot;#SvgjsLinearGradient1723&quot;)"></path><path d="M202.5 202.5L229.5 202.5L256.5 202.5L283.5 202.5L310.5 202.5L337.5 202.5L364.5 202.5M256.5 229.5L283.5 256.5L310.5 256.5L337.5 283.5L364.5 283.5L391.5 283.5L418.5 283.5M364.5 256.5L391.5 229.5L418.5 229.5L445.5 229.5L472.5 229.5M742.5 283.5L769.5 283.5L796.5 283.5L823.5 283.5L850.5 283.5L877.5 283.5L904.5 283.5L931.5 283.5L958.5 283.5L985.5 283.5L1012.5 283.5M229.5 229.5L256.5 256.5M472.5 283.5L499.5 283.5L526.5 283.5L553.5 283.5L580.5 283.5L607.5 283.5L634.5 256.5L661.5 256.5L688.5 256.5L715.5 256.5L742.5 256.5L769.5 256.5L796.5 256.5L823.5 256.5M121.5 202.5L148.5 229.5L175.5 229.5L202.5 229.5L229.5 256.5M-13.5 229.5L13.5 202.5L40.5 202.5L67.5 202.5L94.5 202.5L121.5 202.5L148.5 202.5L175.5 202.5L202.5 202.5L229.5 229.5L256.5 229.5L283.5 229.5L310.5 229.5L337.5 229.5L364.5 256.5L391.5 256.5L418.5 256.5L445.5 283.5L472.5 283.5L499.5 310.5L526.5 310.5L553.5 310.5L580.5 310.5L607.5 310.5L634.5 283.5L661.5 283.5L688.5 283.5L715.5 283.5L742.5 283.5L769.5 310.5L796.5 310.5" stroke="url(&quot;#SvgjsLinearGradient1723&quot;)" stroke-width="4.5"></path><path d="M789.75 310.5 a6.75 6.75 0 1 0 13.5 0 a6.75 6.75 0 1 0 -13.5 0zM357.75 202.5 a6.75 6.75 0 1 0 13.5 0 a6.75 6.75 0 1 0 -13.5 0zM411.75 283.5 a6.75 6.75 0 1 0 13.5 0 a6.75 6.75 0 1 0 -13.5 0zM465.75 229.5 a6.75 6.75 0 1 0 13.5 0 a6.75 6.75 0 1 0 -13.5 0zM1005.75 283.5 a6.75 6.75 0 1 0 13.5 0 a6.75 6.75 0 1 0 -13.5 0zM249.75 256.5 a6.75 6.75 0 1 0 13.5 0 a6.75 6.75 0 1 0 -13.5 0zM816.75 256.5 a6.75 6.75 0 1 0 13.5 0 a6.75 6.75 0 1 0 -13.5 0zM222.75 256.5 a6.75 6.75 0 1 0 13.5 0 a6.75 6.75 0 1 0 -13.5 0z" fill="url(&quot;#SvgjsLinearGradient1723&quot;)"></path><path d="M229.5 391.5L256.5 364.5M553.5 418.5L580.5 391.5L607.5 364.5L634.5 364.5L661.5 364.5L688.5 364.5M256.5 391.5L283.5 418.5L310.5 418.5L337.5 418.5L364.5 418.5M391.5 418.5L418.5 391.5L445.5 391.5M202.5 391.5L229.5 364.5M688.5 418.5L715.5 391.5L742.5 391.5L769.5 391.5M310.5 391.5L337.5 364.5L364.5 337.5L391.5 337.5L418.5 364.5M-13.5 337.5L13.5 364.5L40.5 364.5L67.5 364.5L94.5 364.5L121.5 364.5L148.5 391.5L175.5 391.5L202.5 391.5L229.5 391.5L256.5 391.5L283.5 391.5L310.5 391.5L337.5 391.5L364.5 391.5L391.5 418.5L418.5 418.5L445.5 418.5L472.5 418.5L499.5 418.5L526.5 418.5L553.5 418.5L580.5 418.5L607.5 418.5L634.5 418.5L661.5 418.5L688.5 418.5L715.5 418.5" stroke="url(&quot;#SvgjsLinearGradient1723&quot;)" stroke-width="4.5"></path><path d="M708.75 418.5 a6.75 6.75 0 1 0 13.5 0 a6.75 6.75 0 1 0 -13.5 0zM249.75 364.5 a6.75 6.75 0 1 0 13.5 0 a6.75 6.75 0 1 0 -13.5 0zM681.75 364.5 a6.75 6.75 0 1 0 13.5 0 a6.75 6.75 0 1 0 -13.5 0zM357.75 418.5 a6.75 6.75 0 1 0 13.5 0 a6.75 6.75 0 1 0 -13.5 0zM438.75 391.5 a6.75 6.75 0 1 0 13.5 0 a6.75 6.75 0 1 0 -13.5 0zM222.75 364.5 a6.75 6.75 0 1 0 13.5 0 a6.75 6.75 0 1 0 -13.5 0zM762.75 391.5 a6.75 6.75 0 1 0 13.5 0 a6.75 6.75 0 1 0 -13.5 0zM411.75 364.5 a6.75 6.75 0 1 0 13.5 0 a6.75 6.75 0 1 0 -13.5 0z" fill="url(&quot;#SvgjsLinearGradient1723&quot;)"></path><path d="M-13.5 202.5L13.5 175.5L40.5 175.5L67.5 175.5L94.5 175.5L121.5 175.5L148.5 175.5L175.5 175.5" stroke="url(&quot;#SvgjsLinearGradient1723&quot;)" stroke-width="4.5"></path><path d="M168.75 175.5 a6.75 6.75 0 1 0 13.5 0 a6.75 6.75 0 1 0 -13.5 0z" fill="url(&quot;#SvgjsLinearGradient1723&quot;)"></path><path d="M499.5 445.5L526.5 472.5L553.5 472.5L580.5 472.5M418.5 445.5L445.5 472.5M148.5 418.5L175.5 418.5L202.5 418.5L229.5 418.5L256.5 418.5M310.5 445.5L337.5 472.5L364.5 472.5L391.5 472.5L418.5 472.5M472.5 445.5L499.5 472.5L526.5 499.5L553.5 499.5L580.5 499.5L607.5 499.5L634.5 499.5M-13.5 364.5L13.5 391.5L40.5 391.5L67.5 391.5L94.5 391.5L121.5 391.5L148.5 418.5L175.5 445.5L202.5 445.5L229.5 445.5L256.5 445.5L283.5 445.5L310.5 445.5L337.5 445.5L364.5 445.5L391.5 445.5L418.5 445.5L445.5 445.5L472.5 445.5L499.5 445.5L526.5 445.5L553.5 445.5" stroke="url(&quot;#SvgjsLinearGradient1723&quot;)" stroke-width="4.5"></path><path d="M546.75 445.5 a6.75 6.75 0 1 0 13.5 0 a6.75 6.75 0 1 0 -13.5 0zM573.75 472.5 a6.75 6.75 0 1 0 13.5 0 a6.75 6.75 0 1 0 -13.5 0zM438.75 472.5 a6.75 6.75 0 1 0 13.5 0 a6.75 6.75 0 1 0 -13.5 0zM249.75 418.5 a6.75 6.75 0 1 0 13.5 0 a6.75 6.75 0 1 0 -13.5 0zM411.75 472.5 a6.75 6.75 0 1 0 13.5 0 a6.75 6.75 0 1 0 -13.5 0zM627.75 499.5 a6.75 6.75 0 1 0 13.5 0 a6.75 6.75 0 1 0 -13.5 0z" fill="url(&quot;#SvgjsLinearGradient1723&quot;)"></path><path d="M310.5 148.5L337.5 175.5L364.5 175.5L391.5 175.5M229.5 148.5L256.5 175.5L283.5 175.5L310.5 175.5M607.5 148.5L634.5 175.5L661.5 175.5L688.5 175.5M634.5 148.5L661.5 148.5L688.5 148.5L715.5 148.5M499.5 148.5L526.5 175.5L553.5 202.5L580.5 202.5L607.5 202.5L634.5 202.5L661.5 202.5M553.5 148.5L580.5 121.5L607.5 121.5L634.5 121.5L661.5 94.5L688.5 94.5L715.5 94.5L742.5 94.5L769.5 94.5L796.5 94.5L823.5 94.5M67.5 148.5L94.5 121.5L121.5 121.5L148.5 121.5L175.5 121.5M-13.5 175.5L13.5 148.5L40.5 148.5L67.5 148.5L94.5 148.5L121.5 148.5L148.5 148.5L175.5 148.5L202.5 148.5L229.5 148.5L256.5 148.5L283.5 148.5L310.5 148.5L337.5 148.5L364.5 148.5L391.5 148.5L418.5 148.5L445.5 148.5L472.5 148.5L499.5 148.5L526.5 148.5L553.5 148.5L580.5 148.5L607.5 148.5L634.5 148.5L661.5 121.5L688.5 121.5L715.5 121.5L742.5 121.5L769.5 121.5L796.5 121.5" stroke="url(&quot;#SvgjsLinearGradient1723&quot;)" stroke-width="4.5"></path><path d="M789.75 121.5 a6.75 6.75 0 1 0 13.5 0 a6.75 6.75 0 1 0 -13.5 0zM384.75 175.5 a6.75 6.75 0 1 0 13.5 0 a6.75 6.75 0 1 0 -13.5 0zM303.75 175.5 a6.75 6.75 0 1 0 13.5 0 a6.75 6.75 0 1 0 -13.5 0zM681.75 175.5 a6.75 6.75 0 1 0 13.5 0 a6.75 6.75 0 1 0 -13.5 0zM708.75 148.5 a6.75 6.75 0 1 0 13.5 0 a6.75 6.75 0 1 0 -13.5 0zM654.75 202.5 a6.75 6.75 0 1 0 13.5 0 a6.75 6.75 0 1 0 -13.5 0zM816.75 94.5 a6.75 6.75 0 1 0 13.5 0 a6.75 6.75 0 1 0 -13.5 0zM168.75 121.5 a6.75 6.75 0 1 0 13.5 0 a6.75 6.75 0 1 0 -13.5 0z" fill="url(&quot;#SvgjsLinearGradient1723&quot;)"></path><path d="M229.5 472.5L256.5 499.5L283.5 499.5M175.5 472.5L202.5 499.5M67.5 418.5L94.5 445.5L121.5 472.5L148.5 472.5L175.5 499.5M-13.5 391.5L13.5 418.5L40.5 418.5L67.5 418.5L94.5 418.5L121.5 418.5L148.5 445.5L175.5 472.5L202.5 472.5L229.5 472.5L256.5 472.5L283.5 472.5L310.5 499.5L337.5 499.5L364.5 499.5L391.5 499.5L418.5 499.5L445.5 499.5" stroke="url(&quot;#SvgjsLinearGradient1723&quot;)" stroke-width="4.5"></path><path d="M438.75 499.5 a6.75 6.75 0 1 0 13.5 0 a6.75 6.75 0 1 0 -13.5 0zM276.75 499.5 a6.75 6.75 0 1 0 13.5 0 a6.75 6.75 0 1 0 -13.5 0zM195.75 499.5 a6.75 6.75 0 1 0 13.5 0 a6.75 6.75 0 1 0 -13.5 0zM168.75 499.5 a6.75 6.75 0 1 0 13.5 0 a6.75 6.75 0 1 0 -13.5 0z" fill="url(&quot;#SvgjsLinearGradient1723&quot;)"></path><path d="M499.5 121.5L526.5 94.5M256.5 121.5L283.5 94.5M202.5 94.5L229.5 67.5L256.5 67.5M364.5 121.5L391.5 94.5M121.5 94.5L148.5 67.5M-13.5 148.5L13.5 121.5L40.5 121.5L67.5 94.5L94.5 94.5L121.5 94.5L148.5 94.5L175.5 94.5L202.5 94.5L229.5 94.5L256.5 121.5L283.5 121.5L310.5 121.5L337.5 121.5L364.5 121.5L391.5 121.5L418.5 121.5L445.5 121.5L472.5 121.5L499.5 121.5L526.5 121.5" stroke="url(&quot;#SvgjsLinearGradient1723&quot;)" stroke-width="4.5"></path><path d="M519.75 121.5 a6.75 6.75 0 1 0 13.5 0 a6.75 6.75 0 1 0 -13.5 0zM519.75 94.5 a6.75 6.75 0 1 0 13.5 0 a6.75 6.75 0 1 0 -13.5 0zM276.75 94.5 a6.75 6.75 0 1 0 13.5 0 a6.75 6.75 0 1 0 -13.5 0zM249.75 67.5 a6.75 6.75 0 1 0 13.5 0 a6.75 6.75 0 1 0 -13.5 0zM384.75 94.5 a6.75 6.75 0 1 0 13.5 0 a6.75 6.75 0 1 0 -13.5 0zM141.75 67.5 a6.75 6.75 0 1 0 13.5 0 a6.75 6.75 0 1 0 -13.5 0z" fill="url(&quot;#SvgjsLinearGradient1723&quot;)"></path></g></g><defs><mask id="SvgjsMask1722"><rect width="1440" height="560" fill="#ffffff"></rect></mask><linearGradient x1="0" y1="280" x2="1137.6" y2="280" gradientUnits="userSpaceOnUse" id="SvgjsLinearGradient1723"><stop stop-color="rgba(239, 200, 139, 1)" offset="0"></stop><stop stop-color="rgba(23, 126, 137, 1)" offset="0.69"></stop></linearGradient><mask id="SvgjsMask1724"><rect width="1440" height="560" fill="white"></rect><path d="M172.12 310.5 a3.38 3.38 0 1 0 6.76 0 a3.38 3.38 0 1 0 -6.76 0zM199.12 283.5 a3.38 3.38 0 1 0 6.76 0 a3.38 3.38 0 1 0 -6.76 0zM118.12 256.5 a3.38 3.38 0 1 0 6.76 0 a3.38 3.38 0 1 0 -6.76 0zM91.12 256.5 a3.38 3.38 0 1 0 6.76 0 a3.38 3.38 0 1 0 -6.76 0z" fill="black"></path><path d="M10.12 256.5 a3.38 3.38 0 1 0 6.76 0 a3.38 3.38 0 1 0 -6.76 0z" fill="black"></path><path d="M496.12 364.5 a3.38 3.38 0 1 0 6.76 0 a3.38 3.38 0 1 0 -6.76 0zM415.12 337.5 a3.38 3.38 0 1 0 6.76 0 a3.38 3.38 0 1 0 -6.76 0zM64.12 337.5 a3.38 3.38 0 1 0 6.76 0 a3.38 3.38 0 1 0 -6.76 0zM523.12 337.5 a3.38 3.38 0 1 0 6.76 0 a3.38 3.38 0 1 0 -6.76 0zM37.12 337.5 a3.38 3.38 0 1 0 6.76 0 a3.38 3.38 0 1 0 -6.76 0zM307.12 337.5 a3.38 3.38 0 1 0 6.76 0 a3.38 3.38 0 1 0 -6.76 0z" fill="black"></path><path d="M793.12 310.5 a3.38 3.38 0 1 0 6.76 0 a3.38 3.38 0 1 0 -6.76 0zM361.12 202.5 a3.38 3.38 0 1 0 6.76 0 a3.38 3.38 0 1 0 -6.76 0zM415.12 283.5 a3.38 3.38 0 1 0 6.76 0 a3.38 3.38 0 1 0 -6.76 0zM469.12 229.5 a3.38 3.38 0 1 0 6.76 0 a3.38 3.38 0 1 0 -6.76 0zM1009.12 283.5 a3.38 3.38 0 1 0 6.76 0 a3.38 3.38 0 1 0 -6.76 0zM253.12 256.5 a3.38 3.38 0 1 0 6.76 0 a3.38 3.38 0 1 0 -6.76 0zM820.12 256.5 a3.38 3.38 0 1 0 6.76 0 a3.38 3.38 0 1 0 -6.76 0zM226.12 256.5 a3.38 3.38 0 1 0 6.76 0 a3.38 3.38 0 1 0 -6.76 0z" fill="black"></path><path d="M712.12 418.5 a3.38 3.38 0 1 0 6.76 0 a3.38 3.38 0 1 0 -6.76 0zM253.12 364.5 a3.38 3.38 0 1 0 6.76 0 a3.38 3.38 0 1 0 -6.76 0zM685.12 364.5 a3.38 3.38 0 1 0 6.76 0 a3.38 3.38 0 1 0 -6.76 0zM361.12 418.5 a3.38 3.38 0 1 0 6.76 0 a3.38 3.38 0 1 0 -6.76 0zM442.12 391.5 a3.38 3.38 0 1 0 6.76 0 a3.38 3.38 0 1 0 -6.76 0zM226.12 364.5 a3.38 3.38 0 1 0 6.76 0 a3.38 3.38 0 1 0 -6.76 0zM766.12 391.5 a3.38 3.38 0 1 0 6.76 0 a3.38 3.38 0 1 0 -6.76 0zM415.12 364.5 a3.38 3.38 0 1 0 6.76 0 a3.38 3.38 0 1 0 -6.76 0z" fill="black"></path><path d="M172.12 175.5 a3.38 3.38 0 1 0 6.76 0 a3.38 3.38 0 1 0 -6.76 0z" fill="black"></path><path d="M550.12 445.5 a3.38 3.38 0 1 0 6.76 0 a3.38 3.38 0 1 0 -6.76 0zM577.12 472.5 a3.38 3.38 0 1 0 6.76 0 a3.38 3.38 0 1 0 -6.76 0zM442.12 472.5 a3.38 3.38 0 1 0 6.76 0 a3.38 3.38 0 1 0 -6.76 0zM253.12 418.5 a3.38 3.38 0 1 0 6.76 0 a3.38 3.38 0 1 0 -6.76 0zM415.12 472.5 a3.38 3.38 0 1 0 6.76 0 a3.38 3.38 0 1 0 -6.76 0zM631.12 499.5 a3.38 3.38 0 1 0 6.76 0 a3.38 3.38 0 1 0 -6.76 0z" fill="black"></path><path d="M793.12 121.5 a3.38 3.38 0 1 0 6.76 0 a3.38 3.38 0 1 0 -6.76 0zM388.12 175.5 a3.38 3.38 0 1 0 6.76 0 a3.38 3.38 0 1 0 -6.76 0zM307.12 175.5 a3.38 3.38 0 1 0 6.76 0 a3.38 3.38 0 1 0 -6.76 0zM685.12 175.5 a3.38 3.38 0 1 0 6.76 0 a3.38 3.38 0 1 0 -6.76 0zM712.12 148.5 a3.38 3.38 0 1 0 6.76 0 a3.38 3.38 0 1 0 -6.76 0zM658.12 202.5 a3.38 3.38 0 1 0 6.76 0 a3.38 3.38 0 1 0 -6.76 0zM820.12 94.5 a3.38 3.38 0 1 0 6.76 0 a3.38 3.38 0 1 0 -6.76 0zM172.12 121.5 a3.38 3.38 0 1 0 6.76 0 a3.38 3.38 0 1 0 -6.76 0z" fill="black"></path><path d="M442.12 499.5 a3.38 3.38 0 1 0 6.76 0 a3.38 3.38 0 1 0 -6.76 0zM280.12 499.5 a3.38 3.38 0 1 0 6.76 0 a3.38 3.38 0 1 0 -6.76 0zM199.12 499.5 a3.38 3.38 0 1 0 6.76 0 a3.38 3.38 0 1 0 -6.76 0zM172.12 499.5 a3.38 3.38 0 1 0 6.76 0 a3.38 3.38 0 1 0 -6.76 0z" fill="black"></path><path d="M523.12 121.5 a3.38 3.38 0 1 0 6.76 0 a3.38 3.38 0 1 0 -6.76 0zM523.12 94.5 a3.38 3.38 0 1 0 6.76 0 a3.38 3.38 0 1 0 -6.76 0zM280.12 94.5 a3.38 3.38 0 1 0 6.76 0 a3.38 3.38 0 1 0 -6.76 0zM253.12 67.5 a3.38 3.38 0 1 0 6.76 0 a3.38 3.38 0 1 0 -6.76 0zM388.12 94.5 a3.38 3.38 0 1 0 6.76 0 a3.38 3.38 0 1 0 -6.76 0zM145.12 67.5 a3.38 3.38 0 1 0 6.76 0 a3.38 3.38 0 1 0 -6.76 0z" fill="black"></path></mask></defs></svg>